<mxfile host="65bd71144e">
    <diagram name="Page-1" id="6azgbyKoAGWVxh1lyu9T">
        <mxGraphModel dx="1340" dy="610" grid="1" gridSize="10" guides="1" tooltips="1" connect="1" arrows="1" fold="1" page="1" pageScale="1" pageWidth="850" pageHeight="1100" math="1" shadow="0">
            <root>
                <mxCell id="0"/>
                <mxCell id="1" parent="0"/>
                <mxCell id="VyaUs3nrWYhQsxHf3MlB-12" style="edgeStyle=orthogonalEdgeStyle;rounded=0;orthogonalLoop=1;jettySize=auto;html=1;" parent="1" source="VyaUs3nrWYhQsxHf3MlB-1" edge="1">
                    <mxGeometry relative="1" as="geometry">
                        <mxPoint x="590" y="485" as="targetPoint"/>
                    </mxGeometry>
                </mxCell>
                <mxCell id="VyaUs3nrWYhQsxHf3MlB-1" value="" style="verticalLabelPosition=bottom;shadow=0;dashed=0;align=center;html=1;verticalAlign=top;shape=mxgraph.electrical.abstract.multiplier;" parent="1" vertex="1">
                    <mxGeometry x="400" y="460" width="50" height="50" as="geometry"/>
                </mxCell>
                <mxCell id="VyaUs3nrWYhQsxHf3MlB-4" value="" style="pointerEvents=1;verticalLabelPosition=bottom;shadow=0;dashed=0;align=center;html=1;verticalAlign=top;shape=mxgraph.electrical.signal_sources.source;aspect=fixed;points=[[0.5,0,0],[1,0.5,0],[0.5,1,0],[0,0.5,0]];elSignalType=ac;" parent="1" vertex="1">
                    <mxGeometry x="400" y="580" width="50" height="50" as="geometry"/>
                </mxCell>
                <mxCell id="VyaUs3nrWYhQsxHf3MlB-6" style="edgeStyle=orthogonalEdgeStyle;rounded=0;orthogonalLoop=1;jettySize=auto;html=1;entryX=0.5;entryY=1;entryDx=0;entryDy=0;entryPerimeter=0;" parent="1" source="VyaUs3nrWYhQsxHf3MlB-4" target="VyaUs3nrWYhQsxHf3MlB-1" edge="1">
                    <mxGeometry relative="1" as="geometry"/>
                </mxCell>
                <mxCell id="VyaUs3nrWYhQsxHf3MlB-7" value="" style="endArrow=classic;html=1;rounded=0;entryX=0;entryY=0.5;entryDx=0;entryDy=0;entryPerimeter=0;" parent="1" target="VyaUs3nrWYhQsxHf3MlB-1" edge="1">
                    <mxGeometry width="50" height="50" relative="1" as="geometry">
                        <mxPoint x="270" y="485" as="sourcePoint"/>
                        <mxPoint x="460" y="550" as="targetPoint"/>
                    </mxGeometry>
                </mxCell>
                <mxCell id="VyaUs3nrWYhQsxHf3MlB-9" value="&lt;span style=&quot;background-color: transparent; color: light-dark(rgb(0, 0, 0), rgb(255, 255, 255));&quot;&gt;`m(t)`&lt;/span&gt;" style="text;html=1;align=center;verticalAlign=middle;resizable=0;points=[];autosize=1;strokeColor=none;fillColor=none;" parent="1" vertex="1">
                    <mxGeometry x="220" y="470" width="50" height="30" as="geometry"/>
                </mxCell>
                <mxCell id="VyaUs3nrWYhQsxHf3MlB-11" value="`A_{c}cos(2\pi f_{c}t)`" style="text;html=1;align=center;verticalAlign=middle;resizable=0;points=[];autosize=1;strokeColor=none;fillColor=none;" parent="1" vertex="1">
                    <mxGeometry x="425" y="590" width="140" height="30" as="geometry"/>
                </mxCell>
                <mxCell id="VyaUs3nrWYhQsxHf3MlB-13" value="`s(t) = A_{c}m(t)cos(2\pi f_{c}t)`" style="text;html=1;align=center;verticalAlign=middle;resizable=0;points=[];autosize=1;strokeColor=none;fillColor=none;" parent="1" vertex="1">
                    <mxGeometry x="580" y="470" width="190" height="30" as="geometry"/>
                </mxCell>
                <mxCell id="15" value="" style="edgeStyle=none;html=1;" edge="1" parent="1" source="3" target="10">
                    <mxGeometry relative="1" as="geometry"/>
                </mxCell>
                <mxCell id="3" value="" style="verticalLabelPosition=bottom;shadow=0;dashed=0;align=center;html=1;verticalAlign=top;shape=mxgraph.electrical.abstract.multiplier;" vertex="1" parent="1">
                    <mxGeometry x="400" y="790" width="50" height="50" as="geometry"/>
                </mxCell>
                <mxCell id="4" value="" style="pointerEvents=1;verticalLabelPosition=bottom;shadow=0;dashed=0;align=center;html=1;verticalAlign=top;shape=mxgraph.electrical.signal_sources.source;aspect=fixed;points=[[0.5,0,0],[1,0.5,0],[0.5,1,0],[0,0.5,0]];elSignalType=ac;" vertex="1" parent="1">
                    <mxGeometry x="400" y="910" width="50" height="50" as="geometry"/>
                </mxCell>
                <mxCell id="5" style="edgeStyle=orthogonalEdgeStyle;rounded=0;orthogonalLoop=1;jettySize=auto;html=1;entryX=0.5;entryY=1;entryDx=0;entryDy=0;entryPerimeter=0;" edge="1" parent="1" source="4" target="3">
                    <mxGeometry relative="1" as="geometry"/>
                </mxCell>
                <mxCell id="6" value="" style="endArrow=classic;html=1;rounded=0;entryX=0;entryY=0.5;entryDx=0;entryDy=0;entryPerimeter=0;" edge="1" parent="1" target="3">
                    <mxGeometry width="50" height="50" relative="1" as="geometry">
                        <mxPoint x="270" y="815" as="sourcePoint"/>
                        <mxPoint x="460" y="880" as="targetPoint"/>
                    </mxGeometry>
                </mxCell>
                <mxCell id="7" value="&lt;span style=&quot;background-color: transparent; color: light-dark(rgb(0, 0, 0), rgb(255, 255, 255));&quot;&gt;`x_{DSB-SC}(t)`&lt;/span&gt;" style="text;html=1;align=center;verticalAlign=middle;resizable=0;points=[];autosize=1;strokeColor=none;fillColor=none;" vertex="1" parent="1">
                    <mxGeometry x="170" y="798" width="110" height="30" as="geometry"/>
                </mxCell>
                <mxCell id="8" value="`A_{c}cos(2\pi f_{c}t)`" style="text;html=1;align=center;verticalAlign=middle;resizable=0;points=[];autosize=1;strokeColor=none;fillColor=none;" vertex="1" parent="1">
                    <mxGeometry x="425" y="920" width="140" height="30" as="geometry"/>
                </mxCell>
                <mxCell id="11" style="edgeStyle=none;html=1;" edge="1" parent="1" source="10">
                    <mxGeometry relative="1" as="geometry">
                        <mxPoint x="700" y="813" as="targetPoint"/>
                    </mxGeometry>
                </mxCell>
                <mxCell id="13" value="`y(t)`" style="text;html=1;align=center;verticalAlign=middle;resizable=0;points=[];autosize=1;strokeColor=none;fillColor=none;" vertex="1" parent="1">
                    <mxGeometry x="665" y="780" width="50" height="30" as="geometry"/>
                </mxCell>
                <mxCell id="10" value="" style="verticalLabelPosition=bottom;shadow=0;dashed=0;align=center;html=1;verticalAlign=top;shape=mxgraph.electrical.logic_gates.lowpass_filter;" vertex="1" parent="1">
                    <mxGeometry x="560" y="790" width="52" height="46" as="geometry"/>
                </mxCell>
            </root>
        </mxGraphModel>
    </diagram>
</mxfile>